<svg xmlns="http://www.w3.org/2000/svg" width="16" height="16" viewBox="0 0 16 16">
<rect width="16" height="16" fill="#aeb5be"/>
<circle cx="13" cy="5" r="1.0" fill="#00000018"/>
<circle cx="14" cy="12" r="0.6" fill="#8da0b31f"/>
<circle cx="1" cy="15" r="0.8" fill="#8da0b31f"/>
<circle cx="6" cy="0" r="0.6" fill="#00000018"/>
<circle cx="11" cy="7" r="0.6" fill="#00000018"/>
<circle cx="3" cy="3" r="1.0" fill="#ffffff22"/>
<circle cx="9" cy="14" r="0.6" fill="#dbe8f422"/>
<circle cx="2" cy="1" r="1.0" fill="#00000018"/>
<circle cx="6" cy="1" r="0.6" fill="#00000018"/>
<circle cx="12" cy="9" r="0.8" fill="#ffffff22"/>
<circle cx="7" cy="12" r="0.6" fill="#dbe8f422"/>
<circle cx="6" cy="10" r="1.0" fill="#00000018"/>
<circle cx="3" cy="3" r="1.0" fill="#8da0b31f"/>
<circle cx="12" cy="15" r="0.6" fill="#8da0b31f"/>
<circle cx="5" cy="7" r="1.0" fill="#dbe8f422"/>
<circle cx="9" cy="11" r="0.6" fill="#dbe8f422"/>
<circle cx="6" cy="6" r="1.0" fill="#00000018"/>
<circle cx="0" cy="0" r="1.0" fill="#00000018"/>
<circle cx="12" cy="0" r="1.0" fill="#8da0b31f"/>
<circle cx="12" cy="2" r="1.0" fill="#ffffff22"/>
<circle cx="7" cy="7" r="0.6" fill="#8da0b31f"/>
<circle cx="14" cy="6" r="0.8" fill="#00000018"/>
<circle cx="14" cy="9" r="1.0" fill="#00000018"/>
<circle cx="2" cy="14" r="0.8" fill="#00000018"/>
<circle cx="0" cy="10" r="0.6" fill="#8da0b31f"/>
</svg>