<svg xmlns="http://www.w3.org/2000/svg" width="16" height="16" viewBox="0 0 16 16">
<rect width="16" height="16" fill="#d4bd67"/>
<circle cx="0" cy="7" r="0.6" fill="#8da0b31f"/>
<circle cx="14" cy="13" r="0.6" fill="#00000018"/>
<circle cx="5" cy="11" r="0.6" fill="#8da0b31f"/>
<circle cx="15" cy="3" r="0.8" fill="#00000018"/>
<circle cx="9" cy="6" r="0.6" fill="#dbe8f422"/>
<circle cx="2" cy="5" r="0.8" fill="#8da0b31f"/>
<circle cx="15" cy="0" r="0.8" fill="#8da0b31f"/>
<circle cx="9" cy="3" r="0.8" fill="#ffffff22"/>
<circle cx="12" cy="13" r="1.0" fill="#dbe8f422"/>
<circle cx="5" cy="2" r="1.0" fill="#ffffff22"/>
<circle cx="15" cy="1" r="1.0" fill="#ffffff22"/>
<circle cx="8" cy="11" r="1.0" fill="#ffffff22"/>
<circle cx="5" cy="13" r="1.0" fill="#ffffff22"/>
<circle cx="1" cy="10" r="0.8" fill="#dbe8f422"/>
<circle cx="4" cy="5" r="1.0" fill="#00000018"/>
<circle cx="12" cy="3" r="0.8" fill="#dbe8f422"/>
<circle cx="15" cy="15" r="0.6" fill="#ffffff22"/>
<circle cx="8" cy="13" r="0.8" fill="#00000018"/>
<circle cx="12" cy="5" r="0.6" fill="#dbe8f422"/>
<circle cx="2" cy="1" r="0.6" fill="#dbe8f422"/>
<circle cx="4" cy="7" r="0.6" fill="#00000018"/>
<circle cx="3" cy="1" r="0.6" fill="#ffffff22"/>
<circle cx="0" cy="6" r="0.6" fill="#ffffff22"/>
<circle cx="7" cy="1" r="1.0" fill="#00000018"/>
<circle cx="12" cy="7" r="1.0" fill="#dbe8f422"/>
</svg>