<svg xmlns="http://www.w3.org/2000/svg" width="16" height="16" viewBox="0 0 16 16">
<rect width="16" height="16" fill="#77c8e9"/>
<circle cx="5" cy="1" r="0.6" fill="#ffffff22"/>
<circle cx="0" cy="15" r="0.8" fill="#8da0b31f"/>
<circle cx="7" cy="13" r="0.6" fill="#dbe8f422"/>
<circle cx="2" cy="6" r="0.6" fill="#00000018"/>
<circle cx="10" cy="1" r="0.8" fill="#ffffff22"/>
<circle cx="3" cy="5" r="1.0" fill="#8da0b31f"/>
<circle cx="15" cy="15" r="1.0" fill="#8da0b31f"/>
<circle cx="9" cy="7" r="0.6" fill="#00000018"/>
<circle cx="4" cy="6" r="0.8" fill="#00000018"/>
<circle cx="3" cy="6" r="0.8" fill="#dbe8f422"/>
<circle cx="7" cy="2" r="0.8" fill="#8da0b31f"/>
<circle cx="3" cy="11" r="1.0" fill="#00000018"/>
<circle cx="1" cy="12" r="0.6" fill="#00000018"/>
<circle cx="2" cy="6" r="1.0" fill="#ffffff22"/>
<circle cx="4" cy="0" r="0.8" fill="#dbe8f422"/>
<circle cx="3" cy="14" r="0.6" fill="#dbe8f422"/>
<circle cx="3" cy="15" r="1.0" fill="#8da0b31f"/>
<circle cx="14" cy="10" r="0.8" fill="#00000018"/>
<circle cx="8" cy="14" r="0.6" fill="#ffffff22"/>
<circle cx="11" cy="0" r="0.6" fill="#ffffff22"/>
<circle cx="12" cy="12" r="0.6" fill="#8da0b31f"/>
<circle cx="3" cy="5" r="1.0" fill="#dbe8f422"/>
<circle cx="3" cy="7" r="0.6" fill="#00000018"/>
<circle cx="12" cy="4" r="1.0" fill="#8da0b31f"/>
<circle cx="15" cy="4" r="1.0" fill="#ffffff22"/>
</svg>