<svg xmlns="http://www.w3.org/2000/svg" width="32" height="32" viewBox="0 0 32 32">
<rect width="32" height="32" fill="#a7d1ec"/>
<circle cx="27" cy="9" r="0.6" fill="#00000018"/>
<circle cx="16" cy="16" r="1.0" fill="#00000018"/>
<circle cx="17" cy="31" r="1.0" fill="#dbe8f422"/>
<circle cx="10" cy="1" r="1.0" fill="#ffffff22"/>
<circle cx="28" cy="17" r="0.6" fill="#ffffff22"/>
<circle cx="23" cy="4" r="0.6" fill="#00000018"/>
<circle cx="31" cy="12" r="0.8" fill="#8da0b31f"/>
<circle cx="25" cy="5" r="0.6" fill="#8da0b31f"/>
<circle cx="27" cy="5" r="0.6" fill="#dbe8f422"/>
<circle cx="24" cy="30" r="0.6" fill="#ffffff22"/>
<circle cx="29" cy="3" r="0.8" fill="#ffffff22"/>
<circle cx="22" cy="2" r="1.0" fill="#8da0b31f"/>
<circle cx="27" cy="9" r="1.0" fill="#ffffff22"/>
<circle cx="22" cy="11" r="0.8" fill="#dbe8f422"/>
<circle cx="7" cy="30" r="1.0" fill="#8da0b31f"/>
<circle cx="12" cy="7" r="0.8" fill="#dbe8f422"/>
<circle cx="22" cy="4" r="0.6" fill="#8da0b31f"/>
<circle cx="10" cy="19" r="0.8" fill="#8da0b31f"/>
<circle cx="31" cy="30" r="1.0" fill="#ffffff22"/>
<circle cx="9" cy="12" r="0.6" fill="#8da0b31f"/>
<circle cx="11" cy="28" r="1.0" fill="#8da0b31f"/>
<circle cx="16" cy="27" r="1.0" fill="#dbe8f422"/>
<circle cx="14" cy="1" r="1.0" fill="#8da0b31f"/>
<circle cx="9" cy="8" r="1.0" fill="#ffffff22"/>
<circle cx="3" cy="27" r="0.8" fill="#8da0b31f"/>
<circle cx="0" cy="16" r="1.0" fill="#ffffff22"/>
<circle cx="29" cy="30" r="1.0" fill="#dbe8f422"/>
<circle cx="27" cy="21" r="1.0" fill="#8da0b31f"/>
<circle cx="26" cy="19" r="0.8" fill="#dbe8f422"/>
<circle cx="31" cy="5" r="0.6" fill="#dbe8f422"/>
<circle cx="2" cy="5" r="1.0" fill="#dbe8f422"/>
<circle cx="5" cy="15" r="0.8" fill="#00000018"/>
<circle cx="15" cy="10" r="1.0" fill="#00000018"/>
<circle cx="31" cy="30" r="0.6" fill="#ffffff22"/>
<circle cx="14" cy="8" r="0.8" fill="#8da0b31f"/>
<circle cx="10" cy="3" r="1.0" fill="#00000018"/>
<circle cx="6" cy="24" r="0.8" fill="#dbe8f422"/>
<circle cx="11" cy="3" r="0.6" fill="#8da0b31f"/>
<circle cx="9" cy="19" r="0.6" fill="#dbe8f422"/>
<circle cx="12" cy="7" r="1.0" fill="#8da0b31f"/>
<circle cx="17" cy="28" r="1.0" fill="#00000018"/>
<circle cx="5" cy="16" r="1.0" fill="#dbe8f422"/>
<circle cx="25" cy="8" r="1.0" fill="#dbe8f422"/>
<circle cx="6" cy="29" r="0.8" fill="#ffffff22"/>
<circle cx="22" cy="26" r="0.6" fill="#dbe8f422"/>
<circle cx="16" cy="12" r="1.0" fill="#ffffff22"/>
<circle cx="20" cy="16" r="1.0" fill="#00000018"/>
<circle cx="7" cy="8" r="0.8" fill="#dbe8f422"/>
<circle cx="12" cy="8" r="1.0" fill="#dbe8f422"/>
<circle cx="23" cy="8" r="0.6" fill="#ffffff22"/>
<circle cx="12" cy="22" r="0.6" fill="#ffffff22"/>
<circle cx="10" cy="30" r="1.0" fill="#ffffff22"/>
<circle cx="15" cy="11" r="0.6" fill="#00000018"/>
<circle cx="18" cy="11" r="0.6" fill="#8da0b31f"/>
<circle cx="30" cy="8" r="0.8" fill="#ffffff22"/>
<circle cx="22" cy="6" r="0.6" fill="#00000018"/>
<circle cx="12" cy="4" r="0.6" fill="#00000018"/>
<circle cx="7" cy="9" r="0.8" fill="#8da0b31f"/>
<circle cx="2" cy="30" r="1.0" fill="#8da0b31f"/>
<circle cx="14" cy="5" r="0.8" fill="#8da0b31f"/>
<circle cx="19" cy="8" r="1.0" fill="#8da0b31f"/>
<circle cx="10" cy="15" r="1.0" fill="#dbe8f422"/>
<circle cx="26" cy="24" r="0.8" fill="#00000018"/>
<circle cx="23" cy="13" r="0.8" fill="#8da0b31f"/>
<circle cx="18" cy="5" r="0.8" fill="#dbe8f422"/>
<circle cx="10" cy="22" r="1.0" fill="#8da0b31f"/>
<circle cx="20" cy="14" r="0.8" fill="#8da0b31f"/>
<circle cx="25" cy="5" r="0.8" fill="#00000018"/>
<circle cx="15" cy="17" r="1.0" fill="#8da0b31f"/>
<circle cx="3" cy="31" r="1.0" fill="#ffffff22"/>
<circle cx="11" cy="5" r="1.0" fill="#ffffff22"/>
<circle cx="0" cy="6" r="0.8" fill="#dbe8f422"/>
<circle cx="31" cy="13" r="0.8" fill="#8da0b31f"/>
<circle cx="31" cy="11" r="0.6" fill="#00000018"/>
<circle cx="13" cy="25" r="1.0" fill="#00000018"/>
<circle cx="20" cy="3" r="0.8" fill="#dbe8f422"/>
<circle cx="17" cy="29" r="0.6" fill="#8da0b31f"/>
<circle cx="30" cy="25" r="0.8" fill="#8da0b31f"/>
<circle cx="10" cy="17" r="0.6" fill="#8da0b31f"/>
<circle cx="0" cy="16" r="0.8" fill="#8da0b31f"/>
<circle cx="1" cy="30" r="1.0" fill="#ffffff22"/>
<circle cx="7" cy="3" r="0.6" fill="#ffffff22"/>
<circle cx="9" cy="6" r="0.8" fill="#dbe8f422"/>
<circle cx="27" cy="17" r="1.0" fill="#00000018"/>
<circle cx="2" cy="12" r="0.6" fill="#8da0b31f"/>
<circle cx="12" cy="13" r="0.6" fill="#00000018"/>
<circle cx="3" cy="17" r="0.8" fill="#ffffff22"/>
<circle cx="10" cy="17" r="0.6" fill="#8da0b31f"/>
<circle cx="11" cy="25" r="0.8" fill="#dbe8f422"/>
<circle cx="6" cy="7" r="1.0" fill="#dbe8f422"/>
</svg>