<svg xmlns="http://www.w3.org/2000/svg" width="32" height="32" viewBox="0 0 32 32">
<rect width="32" height="32" fill="#d7e8f8"/>
<circle cx="2" cy="16" r="0.8" fill="#00000018"/>
<circle cx="8" cy="25" r="1.0" fill="#8da0b31f"/>
<circle cx="22" cy="31" r="0.8" fill="#00000018"/>
<circle cx="22" cy="0" r="0.8" fill="#00000018"/>
<circle cx="8" cy="19" r="0.8" fill="#8da0b31f"/>
<circle cx="16" cy="25" r="0.8" fill="#dbe8f422"/>
<circle cx="16" cy="3" r="0.6" fill="#dbe8f422"/>
<circle cx="22" cy="10" r="1.0" fill="#dbe8f422"/>
<circle cx="29" cy="2" r="0.6" fill="#00000018"/>
<circle cx="22" cy="14" r="0.6" fill="#ffffff22"/>
<circle cx="26" cy="31" r="1.0" fill="#ffffff22"/>
<circle cx="17" cy="30" r="0.6" fill="#8da0b31f"/>
<circle cx="22" cy="28" r="0.8" fill="#00000018"/>
<circle cx="11" cy="13" r="0.8" fill="#00000018"/>
<circle cx="25" cy="10" r="0.8" fill="#00000018"/>
<circle cx="2" cy="5" r="0.8" fill="#ffffff22"/>
<circle cx="6" cy="18" r="1.0" fill="#8da0b31f"/>
<circle cx="27" cy="10" r="0.6" fill="#ffffff22"/>
<circle cx="1" cy="25" r="0.8" fill="#ffffff22"/>
<circle cx="19" cy="7" r="0.8" fill="#8da0b31f"/>
<circle cx="11" cy="1" r="1.0" fill="#8da0b31f"/>
<circle cx="29" cy="4" r="1.0" fill="#dbe8f422"/>
<circle cx="22" cy="29" r="0.6" fill="#ffffff22"/>
<circle cx="2" cy="11" r="0.8" fill="#8da0b31f"/>
<circle cx="13" cy="29" r="0.6" fill="#ffffff22"/>
<circle cx="23" cy="0" r="0.6" fill="#8da0b31f"/>
<circle cx="26" cy="16" r="0.6" fill="#00000018"/>
<circle cx="29" cy="26" r="0.8" fill="#dbe8f422"/>
<circle cx="8" cy="27" r="0.6" fill="#dbe8f422"/>
<circle cx="8" cy="6" r="0.8" fill="#ffffff22"/>
<circle cx="8" cy="27" r="0.8" fill="#8da0b31f"/>
<circle cx="28" cy="24" r="1.0" fill="#dbe8f422"/>
<circle cx="18" cy="30" r="1.0" fill="#00000018"/>
<circle cx="14" cy="22" r="0.8" fill="#8da0b31f"/>
<circle cx="14" cy="21" r="0.8" fill="#8da0b31f"/>
<circle cx="5" cy="17" r="0.6" fill="#ffffff22"/>
<circle cx="12" cy="11" r="1.0" fill="#dbe8f422"/>
<circle cx="1" cy="11" r="1.0" fill="#ffffff22"/>
<circle cx="13" cy="27" r="1.0" fill="#8da0b31f"/>
<circle cx="8" cy="30" r="0.8" fill="#8da0b31f"/>
<circle cx="8" cy="17" r="1.0" fill="#00000018"/>
<circle cx="19" cy="17" r="1.0" fill="#ffffff22"/>
<circle cx="22" cy="14" r="0.6" fill="#ffffff22"/>
<circle cx="23" cy="27" r="0.6" fill="#00000018"/>
<circle cx="18" cy="6" r="0.6" fill="#ffffff22"/>
<circle cx="2" cy="19" r="0.6" fill="#dbe8f422"/>
<circle cx="21" cy="28" r="0.8" fill="#ffffff22"/>
<circle cx="10" cy="15" r="0.6" fill="#8da0b31f"/>
<circle cx="5" cy="6" r="0.8" fill="#00000018"/>
<circle cx="7" cy="15" r="0.8" fill="#dbe8f422"/>
<circle cx="17" cy="30" r="0.6" fill="#ffffff22"/>
<circle cx="27" cy="25" r="0.8" fill="#00000018"/>
<circle cx="18" cy="7" r="1.0" fill="#dbe8f422"/>
<circle cx="28" cy="26" r="0.8" fill="#dbe8f422"/>
<circle cx="20" cy="0" r="1.0" fill="#00000018"/>
<circle cx="0" cy="24" r="0.6" fill="#8da0b31f"/>
<circle cx="13" cy="22" r="1.0" fill="#8da0b31f"/>
<circle cx="12" cy="7" r="0.8" fill="#8da0b31f"/>
<circle cx="17" cy="23" r="0.8" fill="#ffffff22"/>
<circle cx="3" cy="4" r="0.6" fill="#00000018"/>
<circle cx="18" cy="30" r="0.8" fill="#8da0b31f"/>
<circle cx="21" cy="14" r="0.8" fill="#00000018"/>
<circle cx="30" cy="9" r="0.8" fill="#dbe8f422"/>
<circle cx="11" cy="21" r="0.6" fill="#00000018"/>
<circle cx="24" cy="12" r="1.0" fill="#00000018"/>
<circle cx="0" cy="6" r="0.6" fill="#00000018"/>
<circle cx="27" cy="13" r="0.8" fill="#dbe8f422"/>
<circle cx="27" cy="28" r="0.8" fill="#dbe8f422"/>
<circle cx="15" cy="14" r="0.6" fill="#8da0b31f"/>
<circle cx="23" cy="0" r="0.8" fill="#8da0b31f"/>
<circle cx="16" cy="30" r="0.8" fill="#ffffff22"/>
<circle cx="2" cy="3" r="0.6" fill="#dbe8f422"/>
<circle cx="2" cy="12" r="1.0" fill="#ffffff22"/>
<circle cx="21" cy="16" r="0.6" fill="#8da0b31f"/>
<circle cx="22" cy="11" r="0.8" fill="#00000018"/>
<circle cx="21" cy="16" r="0.6" fill="#dbe8f422"/>
<circle cx="17" cy="20" r="1.0" fill="#dbe8f422"/>
<circle cx="21" cy="0" r="1.0" fill="#ffffff22"/>
<circle cx="23" cy="5" r="1.0" fill="#ffffff22"/>
<circle cx="18" cy="31" r="1.0" fill="#8da0b31f"/>
<circle cx="23" cy="22" r="0.6" fill="#ffffff22"/>
<circle cx="16" cy="10" r="0.8" fill="#ffffff22"/>
<circle cx="13" cy="17" r="1.0" fill="#00000018"/>
<circle cx="7" cy="27" r="0.8" fill="#8da0b31f"/>
<circle cx="19" cy="13" r="0.6" fill="#8da0b31f"/>
<circle cx="0" cy="9" r="0.6" fill="#8da0b31f"/>
<circle cx="23" cy="0" r="1.0" fill="#dbe8f422"/>
<circle cx="15" cy="15" r="0.8" fill="#00000018"/>
<circle cx="18" cy="11" r="1.0" fill="#dbe8f422"/>
<circle cx="7" cy="5" r="1.0" fill="#dbe8f422"/>
<circle cx="28" cy="0" r="1.0" fill="#00000018"/>
<circle cx="20" cy="27" r="0.6" fill="#dbe8f422"/>
<circle cx="9" cy="4" r="0.6" fill="#00000018"/>
<circle cx="10" cy="12" r="0.8" fill="#ffffff22"/>
<circle cx="25" cy="12" r="0.6" fill="#00000018"/>
<circle cx="18" cy="14" r="0.8" fill="#dbe8f422"/>
<circle cx="8" cy="0" r="0.6" fill="#8da0b31f"/>
<circle cx="5" cy="1" r="0.6" fill="#dbe8f422"/>
<circle cx="2" cy="14" r="0.8" fill="#ffffff22"/>
<circle cx="9" cy="18" r="1.0" fill="#00000018"/>
<circle cx="9" cy="1" r="0.8" fill="#8da0b31f"/>
<circle cx="17" cy="14" r="0.6" fill="#ffffff22"/>
<circle cx="14" cy="18" r="1.0" fill="#00000018"/>
<circle cx="12" cy="22" r="1.0" fill="#8da0b31f"/>
<circle cx="12" cy="10" r="1.0" fill="#ffffff22"/>
<circle cx="0" cy="22" r="0.8" fill="#8da0b31f"/>
<circle cx="13" cy="27" r="1.0" fill="#ffffff22"/>
<circle cx="19" cy="26" r="0.8" fill="#dbe8f422"/>
<circle cx="13" cy="3" r="0.8" fill="#ffffff22"/>
<circle cx="20" cy="3" r="0.8" fill="#8da0b31f"/>
<circle cx="4" cy="11" r="0.8" fill="#00000018"/>
<circle cx="9" cy="29" r="0.8" fill="#8da0b31f"/>
<circle cx="30" cy="27" r="0.6" fill="#8da0b31f"/>
<circle cx="3" cy="3" r="1.0" fill="#00000018"/>
<circle cx="25" cy="11" r="0.8" fill="#00000018"/>
<circle cx="7" cy="22" r="1.0" fill="#8da0b31f"/>
<circle cx="25" cy="2" r="1.0" fill="#8da0b31f"/>
<circle cx="9" cy="7" r="0.8" fill="#dbe8f422"/>
<circle cx="11" cy="5" r="0.8" fill="#00000018"/>
<circle cx="18" cy="0" r="0.6" fill="#00000018"/>
</svg>