<svg xmlns="http://www.w3.org/2000/svg" width="24" height="48" viewBox="0 0 24 48">
<rect width="24" height="48" fill="#24415f"/>
<circle cx="5" cy="1" r="0.8" fill="#ffffff22"/>
<circle cx="12" cy="36" r="1.0" fill="#dbe8f422"/>
<circle cx="14" cy="45" r="0.8" fill="#dbe8f422"/>
<circle cx="6" cy="46" r="1.0" fill="#00000018"/>
<circle cx="1" cy="38" r="0.8" fill="#ffffff22"/>
<circle cx="13" cy="8" r="1.0" fill="#00000018"/>
<circle cx="14" cy="13" r="0.8" fill="#00000018"/>
<circle cx="5" cy="22" r="0.6" fill="#8da0b31f"/>
<circle cx="16" cy="13" r="1.0" fill="#00000018"/>
<circle cx="15" cy="32" r="1.0" fill="#00000018"/>
<circle cx="15" cy="30" r="0.8" fill="#ffffff22"/>
<circle cx="15" cy="12" r="0.8" fill="#ffffff22"/>
<circle cx="23" cy="47" r="0.6" fill="#00000018"/>
<circle cx="3" cy="45" r="0.8" fill="#8da0b31f"/>
<circle cx="22" cy="37" r="0.6" fill="#dbe8f422"/>
<circle cx="8" cy="6" r="1.0" fill="#dbe8f422"/>
<circle cx="7" cy="8" r="1.0" fill="#ffffff22"/>
<circle cx="18" cy="4" r="1.0" fill="#00000018"/>
<circle cx="15" cy="34" r="0.8" fill="#00000018"/>
<circle cx="11" cy="46" r="0.8" fill="#8da0b31f"/>
<circle cx="14" cy="35" r="0.6" fill="#dbe8f422"/>
<circle cx="21" cy="38" r="1.0" fill="#ffffff22"/>
<circle cx="7" cy="33" r="0.8" fill="#ffffff22"/>
<circle cx="19" cy="14" r="0.6" fill="#ffffff22"/>
<circle cx="15" cy="31" r="0.8" fill="#ffffff22"/>
<circle cx="6" cy="40" r="0.6" fill="#8da0b31f"/>
<circle cx="4" cy="41" r="0.6" fill="#dbe8f422"/>
<circle cx="16" cy="10" r="1.0" fill="#00000018"/>
<circle cx="13" cy="5" r="0.6" fill="#dbe8f422"/>
<circle cx="11" cy="20" r="0.6" fill="#8da0b31f"/>
<circle cx="15" cy="45" r="0.6" fill="#8da0b31f"/>
<circle cx="16" cy="23" r="1.0" fill="#00000018"/>
<circle cx="11" cy="9" r="0.8" fill="#8da0b31f"/>
<circle cx="2" cy="1" r="0.8" fill="#dbe8f422"/>
<circle cx="1" cy="29" r="0.6" fill="#ffffff22"/>
<circle cx="14" cy="5" r="0.8" fill="#ffffff22"/>
<circle cx="16" cy="18" r="0.6" fill="#ffffff22"/>
<circle cx="6" cy="47" r="0.6" fill="#ffffff22"/>
<circle cx="9" cy="30" r="0.6" fill="#00000018"/>
<circle cx="15" cy="13" r="0.6" fill="#ffffff22"/>
<circle cx="7" cy="18" r="0.8" fill="#ffffff22"/>
<circle cx="10" cy="30" r="0.8" fill="#ffffff22"/>
<circle cx="20" cy="28" r="0.6" fill="#8da0b31f"/>
<circle cx="7" cy="37" r="0.8" fill="#00000018"/>
<circle cx="3" cy="41" r="1.0" fill="#8da0b31f"/>
<circle cx="7" cy="16" r="0.6" fill="#8da0b31f"/>
<circle cx="18" cy="20" r="0.8" fill="#ffffff22"/>
<circle cx="22" cy="22" r="0.8" fill="#ffffff22"/>
<circle cx="7" cy="2" r="1.0" fill="#ffffff22"/>
<circle cx="23" cy="7" r="0.6" fill="#00000018"/>
<circle cx="11" cy="33" r="0.6" fill="#dbe8f422"/>
<circle cx="0" cy="7" r="0.8" fill="#00000018"/>
<circle cx="19" cy="35" r="1.0" fill="#00000018"/>
<circle cx="11" cy="3" r="0.6" fill="#8da0b31f"/>
<circle cx="10" cy="10" r="0.8" fill="#dbe8f422"/>
<circle cx="18" cy="35" r="1.0" fill="#8da0b31f"/>
<circle cx="8" cy="28" r="1.0" fill="#8da0b31f"/>
<circle cx="15" cy="10" r="0.6" fill="#8da0b31f"/>
<circle cx="11" cy="13" r="0.6" fill="#ffffff22"/>
<circle cx="6" cy="3" r="0.6" fill="#ffffff22"/>
</svg>