<svg xmlns="http://www.w3.org/2000/svg" width="24" height="48" viewBox="0 0 24 48">
<rect width="24" height="48" fill="#4a525f"/>
<circle cx="7" cy="0" r="1.0" fill="#00000018"/>
<circle cx="21" cy="37" r="0.8" fill="#dbe8f422"/>
<circle cx="9" cy="7" r="1.0" fill="#dbe8f422"/>
<circle cx="2" cy="24" r="0.8" fill="#8da0b31f"/>
<circle cx="9" cy="40" r="0.6" fill="#dbe8f422"/>
<circle cx="1" cy="38" r="0.8" fill="#ffffff22"/>
<circle cx="16" cy="1" r="0.6" fill="#00000018"/>
<circle cx="5" cy="33" r="0.8" fill="#8da0b31f"/>
<circle cx="23" cy="16" r="0.8" fill="#8da0b31f"/>
<circle cx="22" cy="1" r="1.0" fill="#00000018"/>
<circle cx="9" cy="35" r="0.6" fill="#8da0b31f"/>
<circle cx="22" cy="16" r="0.8" fill="#8da0b31f"/>
<circle cx="11" cy="30" r="1.0" fill="#00000018"/>
<circle cx="14" cy="15" r="0.6" fill="#dbe8f422"/>
<circle cx="3" cy="30" r="1.0" fill="#00000018"/>
<circle cx="23" cy="36" r="0.8" fill="#00000018"/>
<circle cx="7" cy="8" r="0.8" fill="#ffffff22"/>
<circle cx="23" cy="46" r="1.0" fill="#00000018"/>
<circle cx="11" cy="21" r="1.0" fill="#ffffff22"/>
<circle cx="22" cy="21" r="0.6" fill="#00000018"/>
<circle cx="0" cy="44" r="1.0" fill="#8da0b31f"/>
<circle cx="11" cy="13" r="0.8" fill="#00000018"/>
<circle cx="17" cy="1" r="0.6" fill="#8da0b31f"/>
<circle cx="22" cy="46" r="0.6" fill="#ffffff22"/>
<circle cx="10" cy="10" r="0.8" fill="#8da0b31f"/>
<circle cx="18" cy="14" r="1.0" fill="#dbe8f422"/>
<circle cx="9" cy="16" r="1.0" fill="#8da0b31f"/>
<circle cx="15" cy="38" r="0.6" fill="#00000018"/>
<circle cx="7" cy="42" r="0.6" fill="#00000018"/>
<circle cx="21" cy="5" r="0.6" fill="#ffffff22"/>
<circle cx="20" cy="33" r="0.6" fill="#00000018"/>
<circle cx="14" cy="41" r="0.6" fill="#00000018"/>
<circle cx="5" cy="0" r="0.8" fill="#8da0b31f"/>
<circle cx="4" cy="24" r="1.0" fill="#dbe8f422"/>
<circle cx="20" cy="26" r="0.8" fill="#00000018"/>
<circle cx="21" cy="40" r="1.0" fill="#ffffff22"/>
<circle cx="0" cy="44" r="1.0" fill="#8da0b31f"/>
<circle cx="0" cy="11" r="0.6" fill="#8da0b31f"/>
<circle cx="15" cy="4" r="1.0" fill="#00000018"/>
<circle cx="9" cy="27" r="0.8" fill="#00000018"/>
<circle cx="1" cy="46" r="0.8" fill="#00000018"/>
<circle cx="14" cy="41" r="0.6" fill="#ffffff22"/>
<circle cx="22" cy="29" r="0.8" fill="#00000018"/>
<circle cx="14" cy="5" r="0.8" fill="#00000018"/>
<circle cx="15" cy="37" r="0.6" fill="#dbe8f422"/>
<circle cx="20" cy="25" r="0.8" fill="#8da0b31f"/>
<circle cx="18" cy="25" r="0.6" fill="#00000018"/>
<circle cx="18" cy="28" r="1.0" fill="#dbe8f422"/>
<circle cx="22" cy="36" r="0.6" fill="#00000018"/>
<circle cx="20" cy="37" r="0.6" fill="#00000018"/>
<circle cx="7" cy="4" r="1.0" fill="#dbe8f422"/>
<circle cx="9" cy="9" r="0.8" fill="#dbe8f422"/>
<circle cx="5" cy="25" r="0.8" fill="#8da0b31f"/>
<circle cx="2" cy="8" r="0.8" fill="#00000018"/>
<circle cx="21" cy="45" r="0.8" fill="#dbe8f422"/>
<circle cx="17" cy="5" r="1.0" fill="#ffffff22"/>
<circle cx="10" cy="30" r="1.0" fill="#00000018"/>
<circle cx="4" cy="47" r="0.6" fill="#ffffff22"/>
<circle cx="9" cy="20" r="0.8" fill="#dbe8f422"/>
<circle cx="8" cy="1" r="0.6" fill="#ffffff22"/>
</svg>